<svg role="img" viewBox="0 0 24 24" xmlns="http://www.w3.org/2000/svg" fill="#FFFFFF">
  <path d="M20.317 4.3698a19.7913 19.7913 0 0 0-4.8851-1.5152.0741.0741 0 0 0-.0785.0371c-.211.3753-.4447.8648-.6083 1.2495-1.8447-.2762-3.68-.2762-5.4868 0-.1636-.3933-.4058-.8742-.6177-1.2495a.077.077 0 0 0-.0785-.037 19.7363 19.7363 0 0 0-4.8852 1.515.0699.0699 0 0 0-.0321.0277C.5334 9.0458-.319 13.5799.0992 18.0578a.0824.0824 0 0 0 .0312.0561 19.9785 19.9785 0 0 0 6.066 3.1057.0777.0777 0 0 0 .0842-.0276c.4676-.6304.8898-1.2952 1.248-1.9942a.076.076 0 0 0-.0416-.1057 13.1431 13.1431 0 0 1-1.872-.8953.077.077 0 0 1-.0076-.1277c.1258-.0943.2517-.1923.3718-.2914a.0743.0743 0 0 1 .079-.0105c3.9278 1.7933 8.18 1.7933 12.0614 0a.0739.0739 0 0 1 .0814.0095c.119.099.246.1981.3727.2924a.077.077 0 0 1-.006.1276 12.654 12.654 0 0 1-1.873.8935.0766.0766 0 0 0-.0407.1062c.36.6989.7822 1.3637 1.25 1.9942a.0766.0766 0 0 0 .0842.0286 19.9135 19.9135 0 0 0 6.065-3.104.0822.0822 0 0 0 .03-.0554c.5004-5.177-.8382-9.6739-3.5485-13.6604a.061.061 0 0 0-.0312-.0286zM8.02 15.3312c-1.1825 0-2.1569-1.0857-2.1569-2.419 0-1.3332.9555-2.4189 2.157-2.4189 1.2108 0 2.1757 1.0952 2.1568 2.4189 0 1.3333-.9555 2.419-2.1569 2.419zm7.9748 0c-1.1824 0-2.1568-1.0857-2.1568-2.419 0-1.3332.9554-2.4189 2.1568-2.4189 1.2107 0 2.1756 1.0952 2.1567 2.4189 0 1.3333-.946 2.419-2.1567 2.419z"/>
</svg>
